<mxfile host="app.diagrams.net" modified="2021-11-16T21:40:47.687Z" agent="5.0 (Windows NT 10.0; Win64; x64) AppleWebKit/537.36 (KHTML, like Gecko) Chrome/95.0.4638.69 Safari/537.36 Edg/95.0.1020.53" etag="D2_7pIE8EqIB3Rl9pQjv" version="15.5.2" type="github">
  <diagram id="FVFjdacttBj3hZLV_24r" name="Page-1">
    <mxGraphModel dx="782" dy="738" grid="1" gridSize="10" guides="1" tooltips="1" connect="1" arrows="1" fold="1" page="1" pageScale="1" pageWidth="827" pageHeight="1169" math="0" shadow="0">
      <root>
        <mxCell id="0" />
        <mxCell id="1" parent="0" />
        <mxCell id="E8EI0TxlnBe6I5BZGubP-7" style="edgeStyle=orthogonalEdgeStyle;rounded=0;orthogonalLoop=1;jettySize=auto;html=1;endArrow=none;endFill=0;jumpSize=7;strokeWidth=2;" edge="1" parent="1" source="E8EI0TxlnBe6I5BZGubP-2" target="E8EI0TxlnBe6I5BZGubP-6">
          <mxGeometry relative="1" as="geometry" />
        </mxCell>
        <mxCell id="E8EI0TxlnBe6I5BZGubP-2" value="SAPES" style="rounded=0;whiteSpace=wrap;html=1;strokeWidth=2;" vertex="1" parent="1">
          <mxGeometry x="315" y="30" width="120" height="60" as="geometry" />
        </mxCell>
        <mxCell id="E8EI0TxlnBe6I5BZGubP-6" value="" style="swimlane;startSize=0;strokeColor=#1A1A1A;strokeWidth=2;spacingLeft=0;sketch=0;spacingBottom=0;" vertex="1" parent="1">
          <mxGeometry x="40" y="150" width="670" height="70" as="geometry" />
        </mxCell>
        <mxCell id="E8EI0TxlnBe6I5BZGubP-3" value="Proyectos" style="rounded=0;whiteSpace=wrap;html=1;strokeWidth=2;" vertex="1" parent="E8EI0TxlnBe6I5BZGubP-6">
          <mxGeometry x="30" y="20" width="120" height="35" as="geometry" />
        </mxCell>
        <mxCell id="E8EI0TxlnBe6I5BZGubP-20" value="Integrantes" style="rounded=0;whiteSpace=wrap;html=1;strokeWidth=2;" vertex="1" parent="E8EI0TxlnBe6I5BZGubP-6">
          <mxGeometry x="275" y="17.5" width="120" height="35" as="geometry" />
        </mxCell>
        <mxCell id="E8EI0TxlnBe6I5BZGubP-21" value="Tablero" style="rounded=0;whiteSpace=wrap;html=1;strokeWidth=2;" vertex="1" parent="E8EI0TxlnBe6I5BZGubP-6">
          <mxGeometry x="530" y="17.5" width="120" height="35" as="geometry" />
        </mxCell>
        <mxCell id="E8EI0TxlnBe6I5BZGubP-11" value="Gestionar equipos de trabajo" style="rounded=0;whiteSpace=wrap;html=1;strokeWidth=2;" vertex="1" parent="1">
          <mxGeometry x="150" y="260" width="120" height="60" as="geometry" />
        </mxCell>
        <mxCell id="E8EI0TxlnBe6I5BZGubP-12" value="Gestionar historias de usuario" style="rounded=0;whiteSpace=wrap;html=1;strokeWidth=2;" vertex="1" parent="1">
          <mxGeometry x="150" y="360" width="120" height="60" as="geometry" />
        </mxCell>
        <mxCell id="E8EI0TxlnBe6I5BZGubP-13" value="Asignar historia de usuario" style="rounded=0;whiteSpace=wrap;html=1;strokeWidth=2;" vertex="1" parent="1">
          <mxGeometry x="150" y="450" width="120" height="60" as="geometry" />
        </mxCell>
        <mxCell id="E8EI0TxlnBe6I5BZGubP-14" style="edgeStyle=orthogonalEdgeStyle;rounded=0;jumpSize=7;orthogonalLoop=1;jettySize=auto;html=1;entryX=0;entryY=0.5;entryDx=0;entryDy=0;endArrow=none;endFill=0;strokeWidth=2;" edge="1" parent="1" source="E8EI0TxlnBe6I5BZGubP-3" target="E8EI0TxlnBe6I5BZGubP-11">
          <mxGeometry relative="1" as="geometry" />
        </mxCell>
        <mxCell id="E8EI0TxlnBe6I5BZGubP-15" style="edgeStyle=orthogonalEdgeStyle;rounded=0;jumpSize=7;orthogonalLoop=1;jettySize=auto;html=1;entryX=0;entryY=0.5;entryDx=0;entryDy=0;endArrow=none;endFill=0;strokeWidth=2;" edge="1" parent="1" source="E8EI0TxlnBe6I5BZGubP-3" target="E8EI0TxlnBe6I5BZGubP-12">
          <mxGeometry relative="1" as="geometry" />
        </mxCell>
        <mxCell id="E8EI0TxlnBe6I5BZGubP-16" style="edgeStyle=orthogonalEdgeStyle;rounded=0;jumpSize=7;orthogonalLoop=1;jettySize=auto;html=1;entryX=0;entryY=0.5;entryDx=0;entryDy=0;endArrow=none;endFill=0;strokeWidth=2;" edge="1" parent="1" source="E8EI0TxlnBe6I5BZGubP-3" target="E8EI0TxlnBe6I5BZGubP-13">
          <mxGeometry relative="1" as="geometry" />
        </mxCell>
        <mxCell id="E8EI0TxlnBe6I5BZGubP-22" value="Gestionar integrantes&amp;nbsp;" style="rounded=0;whiteSpace=wrap;html=1;strokeWidth=2;" vertex="1" parent="1">
          <mxGeometry x="400" y="260" width="120" height="60" as="geometry" />
        </mxCell>
        <mxCell id="E8EI0TxlnBe6I5BZGubP-23" style="edgeStyle=orthogonalEdgeStyle;rounded=0;jumpSize=7;orthogonalLoop=1;jettySize=auto;html=1;entryX=0;entryY=0.5;entryDx=0;entryDy=0;endArrow=none;endFill=0;strokeWidth=2;" edge="1" parent="1" source="E8EI0TxlnBe6I5BZGubP-20" target="E8EI0TxlnBe6I5BZGubP-22">
          <mxGeometry relative="1" as="geometry" />
        </mxCell>
        <mxCell id="E8EI0TxlnBe6I5BZGubP-24" value="Consultar estatus de historias de usuario" style="rounded=0;whiteSpace=wrap;html=1;strokeWidth=2;" vertex="1" parent="1">
          <mxGeometry x="650" y="350" width="120" height="60" as="geometry" />
        </mxCell>
        <mxCell id="E8EI0TxlnBe6I5BZGubP-25" value="Consultar informaciÃ³n de proyecto" style="rounded=0;whiteSpace=wrap;html=1;strokeWidth=2;" vertex="1" parent="1">
          <mxGeometry x="650" y="260" width="120" height="60" as="geometry" />
        </mxCell>
        <mxCell id="E8EI0TxlnBe6I5BZGubP-26" value="Generar reporte o informe de proyecto" style="rounded=0;whiteSpace=wrap;html=1;strokeWidth=2;" vertex="1" parent="1">
          <mxGeometry x="650" y="440" width="120" height="60" as="geometry" />
        </mxCell>
        <mxCell id="E8EI0TxlnBe6I5BZGubP-27" style="edgeStyle=orthogonalEdgeStyle;rounded=0;jumpSize=7;orthogonalLoop=1;jettySize=auto;html=1;entryX=0;entryY=0.5;entryDx=0;entryDy=0;endArrow=none;endFill=0;strokeWidth=2;" edge="1" parent="1" source="E8EI0TxlnBe6I5BZGubP-21" target="E8EI0TxlnBe6I5BZGubP-25">
          <mxGeometry relative="1" as="geometry" />
        </mxCell>
        <mxCell id="E8EI0TxlnBe6I5BZGubP-28" style="edgeStyle=orthogonalEdgeStyle;rounded=0;jumpSize=7;orthogonalLoop=1;jettySize=auto;html=1;entryX=0;entryY=0.5;entryDx=0;entryDy=0;endArrow=none;endFill=0;strokeWidth=2;" edge="1" parent="1" source="E8EI0TxlnBe6I5BZGubP-21" target="E8EI0TxlnBe6I5BZGubP-24">
          <mxGeometry relative="1" as="geometry" />
        </mxCell>
        <mxCell id="E8EI0TxlnBe6I5BZGubP-29" style="edgeStyle=orthogonalEdgeStyle;rounded=0;jumpSize=7;orthogonalLoop=1;jettySize=auto;html=1;entryX=0;entryY=0.5;entryDx=0;entryDy=0;endArrow=none;endFill=0;strokeWidth=2;" edge="1" parent="1" source="E8EI0TxlnBe6I5BZGubP-21" target="E8EI0TxlnBe6I5BZGubP-26">
          <mxGeometry relative="1" as="geometry" />
        </mxCell>
      </root>
    </mxGraphModel>
  </diagram>
</mxfile>
